<svg width="21" height="25" viewBox="0 0 21 25" fill="none" xmlns="http://www.w3.org/2000/svg">
<path d="M2.0584 24.3312C1.90783 24.4319 1.73273 24.4899 1.5518 24.4988C1.37087 24.5077 1.19091 24.4673 1.03117 24.3819C0.871419 24.2965 0.737882 24.1692 0.644828 24.0138C0.551773 23.8584 0.502698 23.6806 0.502846 23.4995V4.52086C0.502844 3.46168 0.923053 2.44577 1.67126 1.69607C2.41946 0.946363 3.43453 0.52412 4.49371 0.522002L16.4903 0.500008C17.0154 0.498957 17.5356 0.60135 18.0212 0.801341C18.5068 1.00133 18.9482 1.295 19.3203 1.66559C19.6923 2.03618 19.9878 2.47642 20.1897 2.96118C20.3916 3.44595 20.4961 3.96573 20.4972 4.49087V23.4975C20.4973 23.6786 20.4482 23.8564 20.3552 24.0118C20.2621 24.1672 20.1286 24.2945 19.9688 24.3799C19.8091 24.4653 19.6291 24.5057 19.4482 24.4968C19.2673 24.4879 19.0922 24.4299 18.9416 24.3292L10.5 18.6908L2.0584 24.3292V24.3312ZM18.4977 4.50087L18.4837 4.26494C18.4259 3.77825 18.1913 3.32976 17.8246 3.00465C17.4578 2.67954 16.9844 2.50047 16.4943 2.50144L4.49771 2.52143C3.96812 2.52249 3.46058 2.73361 3.08648 3.10846C2.71238 3.48332 2.50228 3.99127 2.50228 4.52086V21.63L9.94416 16.6594C10.1087 16.5494 10.3021 16.4906 10.5 16.4906C10.6979 16.4906 10.8914 16.5494 11.0558 16.6594L18.4977 21.63V4.50087Z" fill="#333A57"/>
</svg>
