<svg width="24" height="24" viewBox="0 0 24 24" fill="none" xmlns="http://www.w3.org/2000/svg">
<path fill-rule="evenodd" clip-rule="evenodd" d="M3.43358 17.8336C3.3592 17.908 3.3002 17.9963 3.25995 18.0935C3.21969 18.1907 3.19897 18.2948 3.19897 18.4C3.19897 18.5052 3.21969 18.6094 3.25995 18.7066C3.3002 18.8037 3.3592 18.892 3.43358 18.9664C3.50797 19.0408 3.59627 19.0998 3.69345 19.1401C3.79063 19.1803 3.89479 19.201 3.99999 19.201C4.10518 19.201 4.20934 19.1803 4.30652 19.1401C4.4037 19.0998 4.492 19.0408 4.56639 18.9664L10.9664 12.5664C11.0409 12.4921 11.1 12.4038 11.1403 12.3066C11.1807 12.2094 11.2014 12.1052 11.2014 12C11.2014 11.8948 11.1807 11.7906 11.1403 11.6934C11.1 11.5962 11.0409 11.5079 10.9664 11.4336L4.56639 5.03362C4.492 4.95924 4.4037 4.90024 4.30652 4.85998C4.20934 4.81973 4.10518 4.79901 3.99999 4.79901C3.89479 4.79901 3.79063 4.81973 3.69345 4.85998C3.59627 4.90024 3.50797 4.95924 3.43358 5.03362C3.3592 5.108 3.3002 5.19631 3.25995 5.29349C3.21969 5.39067 3.19897 5.49483 3.19897 5.60002C3.19897 5.70521 3.21969 5.80937 3.25995 5.90656C3.3002 6.00374 3.3592 6.09204 3.43358 6.16642L9.26879 12L3.43358 17.8336ZM13.0336 17.8336C12.8834 17.9838 12.799 18.1876 12.799 18.4C12.799 18.6125 12.8834 18.8162 13.0336 18.9664C13.1838 19.1166 13.3875 19.201 13.6 19.201C13.8124 19.201 14.0162 19.1166 14.1664 18.9664L20.5664 12.5664C20.6409 12.4921 20.7 12.4038 20.7403 12.3066C20.7807 12.2094 20.8014 12.1052 20.8014 12C20.8014 11.8948 20.7807 11.7906 20.7403 11.6934C20.7 11.5962 20.6409 11.5079 20.5664 11.4336L14.1664 5.03362C14.0162 4.8834 13.8124 4.79901 13.6 4.79901C13.3875 4.79901 13.1838 4.8834 13.0336 5.03362C12.8834 5.18384 12.799 5.38758 12.799 5.60002C12.799 5.81246 12.8834 6.0162 13.0336 6.16642L18.8688 12L13.0336 17.8336Z" fill="#333A57"/>
</svg>
