<svg width="14" height="22" viewBox="0 0 14 22" fill="none" xmlns="http://www.w3.org/2000/svg">
<path d="M8.99992 19.625C8.99992 20.1223 8.80238 20.5992 8.45075 20.9508C8.09912 21.3025 7.6222 21.5 7.12492 21.5C6.62764 21.5 6.15073 21.3025 5.7991 20.9508C5.44747 20.5992 5.24992 20.1223 5.24992 19.625C5.24992 19.1277 5.44747 18.6508 5.7991 18.2992C6.15073 17.9476 6.62764 17.75 7.12492 17.75C7.6222 17.75 8.09912 17.9476 8.45075 18.2992C8.80238 18.6508 8.99992 19.1277 8.99992 19.625ZM7.19392 16.4165C6.13642 16.4165 5.27767 15.6238 5.27767 14.6465V12.554C5.27767 11.2618 6.27967 10.1533 7.65517 9.91851C8.82442 9.71976 9.66742 8.77251 9.66742 7.67151V6.73851C9.66742 5.46801 8.58592 4.41126 7.25017 4.38126C6.59432 4.36154 5.95619 4.59583 5.46892 5.03526C4.99192 5.46801 4.72942 6.04776 4.72942 6.66501C4.72942 7.64151 3.87067 8.43501 2.81317 8.43501C1.75567 8.43501 0.888672 7.64151 0.888672 6.65751C0.888672 5.07951 1.56442 3.59601 2.78092 2.49501C4.00567 1.39251 5.61967 0.798508 7.32967 0.835258C10.7324 0.901258 13.4999 3.55176 13.4999 6.73101V7.67151C13.4999 10.1893 11.7577 12.3883 9.24517 13.1818C9.20629 13.1937 9.17224 13.2178 9.14796 13.2504C9.12369 13.283 9.11045 13.3226 9.11017 13.3633V14.6398C9.11017 15.6238 8.25217 16.4165 7.19392 16.4165Z" fill="#333A57"/>
</svg>
