<svg width="23" height="23" viewBox="0 0 23 23" fill="none" xmlns="http://www.w3.org/2000/svg">
<path d="M21.7331 9.03047L12.9886 0.775938L12.9711 0.759531C12.5692 0.39176 12.0442 0.18779 11.4995 0.18779C10.9547 0.18779 10.4297 0.39176 10.0278 0.759531L10.0092 0.775938L1.26687 9.03047C1.04517 9.23559 0.868185 9.48425 0.746985 9.76091C0.625785 10.0376 0.56298 10.3362 0.5625 10.6383V20.75C0.5625 21.3302 0.792968 21.8866 1.2032 22.2968C1.61344 22.707 2.16984 22.9375 2.75 22.9375H8C8.58016 22.9375 9.13656 22.707 9.5468 22.2968C9.95703 21.8866 10.1875 21.3302 10.1875 20.75V15.9375H12.8125V20.75C12.8125 21.3302 13.043 21.8866 13.4532 22.2968C13.8634 22.707 14.4198 22.9375 15 22.9375H20.25C20.8302 22.9375 21.3866 22.707 21.7968 22.2968C22.207 21.8866 22.4375 21.3302 22.4375 20.75V10.6383C22.437 10.3362 22.3742 10.0376 22.253 9.76091C22.1318 9.48425 21.9548 9.23559 21.7331 9.03047ZM19.8125 20.3125H15.4375V15.5C15.4375 15.2127 15.3809 14.9283 15.271 14.6629C15.1611 14.3975 14.9999 14.1563 14.7968 13.9532C14.5937 13.7501 14.3525 13.5889 14.0871 13.479C13.8217 13.3691 13.5373 13.3125 13.25 13.3125H9.75C9.16984 13.3125 8.61344 13.543 8.2032 13.9532C7.79297 14.3634 7.5625 14.9198 7.5625 15.5V20.3125H3.1875V10.8275L11.5 2.97984L19.8125 10.8275V20.3125Z" fill="#333A57"/>
</svg>
