<svg width="29" height="28" viewBox="0 0 29 28" fill="none" xmlns="http://www.w3.org/2000/svg">
<path d="M11.2188 12.0312H14.7188V21.4375" stroke="#333A57" stroke-width="2" stroke-linecap="round" stroke-linejoin="round"/>
<path d="M10.7266 21.6562H18.2734" stroke="#333A57" stroke-width="2" stroke-miterlimit="10" stroke-linecap="round"/>
<path d="M14.5 8.75C14.1539 8.75 13.8155 8.64737 13.5278 8.45507C13.24 8.26278 13.0157 7.98947 12.8832 7.6697C12.7508 7.34993 12.7161 6.99806 12.7836 6.65859C12.8512 6.31913 13.0178 6.00731 13.2626 5.76256C13.5073 5.51782 13.8191 5.35115 14.1586 5.28363C14.4981 5.2161 14.8499 5.25076 15.1697 5.38321C15.4895 5.51566 15.7628 5.73997 15.9551 6.02775C16.1474 6.31554 16.25 6.65388 16.25 7C16.25 7.46413 16.0656 7.90925 15.7374 8.23744C15.4092 8.56563 14.9641 8.75 14.5 8.75Z" fill="#333A57"/>
</svg>
