<svg width="49" height="52" viewBox="0 0 49 52" fill="none" xmlns="http://www.w3.org/2000/svg">
<mask id="path-1-outside-1_39_186" maskUnits="userSpaceOnUse" x="0" y="0" width="49" height="52" fill="black">
<rect fill="white" width="49" height="52"/>
<path d="M2 24.5C2 12.0736 12.0736 2 24.5 2V2C36.9264 2 47 12.0736 47 24.5V24.5C47 36.9264 36.9264 47 24.5 47V47C12.0736 47 2 36.9264 2 24.5V24.5Z"/>
</mask>
<path d="M2 24.5C2 12.0736 12.0736 2 24.5 2V2C36.9264 2 47 12.0736 47 24.5V24.5C47 36.9264 36.9264 47 24.5 47V47C12.0736 47 2 36.9264 2 24.5V24.5Z" fill="white"/>
<path d="M0 24.5C0 10.969 10.969 0 24.5 0C38.031 0 49 10.969 49 24.5H45C45 13.1782 35.8218 4 24.5 4C13.1782 4 4 13.1782 4 24.5H0ZM49 27.5C49 41.031 38.031 52 24.5 52C10.969 52 0 41.031 0 27.5L4 24.5C4 34.165 13.1782 42 24.5 42C35.8218 42 45 34.165 45 24.5L49 27.5ZM24.5 52C10.969 52 0 41.031 0 27.5V24.5C0 10.969 10.969 0 24.5 0V4C13.1782 4 4 13.1782 4 24.5C4 34.165 13.1782 42 24.5 42V52ZM24.5 0C38.031 0 49 10.969 49 24.5V27.5C49 41.031 38.031 52 24.5 52V42C35.8218 42 45 34.165 45 24.5C45 13.1782 35.8218 4 24.5 4V0Z" fill="#333A57" mask="url(#path-1-outside-1_39_186)"/>
<path d="M24.5 30.75H33.25M15.75 24.5H33.25M15.75 18.25H33.25" stroke="#333A57" stroke-width="2" stroke-linecap="round" stroke-linejoin="round"/>
</svg>
