<svg width="22" height="22" viewBox="0 0 22 22" fill="none" xmlns="http://www.w3.org/2000/svg">
<path d="M21 21L15.9375 15.9375M15.9375 15.9375C16.75 15.1249 17.3946 14.1603 17.8343 13.0986C18.2741 12.037 18.5004 10.8991 18.5004 9.74999C18.5004 8.60086 18.2741 7.46299 17.8343 6.40134C17.3946 5.33968 16.75 4.37504 15.9375 3.56249C15.1249 2.74993 14.1603 2.10538 13.0986 1.66563C12.037 1.22588 10.8991 0.999542 9.74996 0.999542C8.60083 0.999542 7.46296 1.22588 6.40131 1.66563C5.33965 2.10538 4.37501 2.74993 3.56246 3.56249C1.92143 5.20352 0.999512 7.42923 0.999512 9.74999C0.999512 12.0708 1.92143 14.2965 3.56246 15.9375C5.20349 17.5785 7.42919 18.5004 9.74996 18.5004C12.0707 18.5004 14.2964 17.5785 15.9375 15.9375Z" stroke="white" stroke-width="2" stroke-linecap="round" stroke-linejoin="round"/>
</svg>
