<svg width="24" height="24" viewBox="0 0 24 24" fill="none" xmlns="http://www.w3.org/2000/svg">
<path d="M6.74022 1.67312C6.67221 1.47663 6.54465 1.30623 6.37527 1.18562C6.2059 1.06501 6.00315 1.00019 5.79522 1.00019C5.58729 1.00019 5.38453 1.06501 5.21516 1.18562C5.04579 1.30623 4.91823 1.47663 4.85022 1.67312L2.05722 9.74212C2.01324 9.86647 1.9943 9.99829 2.00148 10.13C2.00867 10.2617 2.04183 10.3907 2.09906 10.5095C2.1563 10.6283 2.23647 10.7346 2.33497 10.8224C2.43347 10.9101 2.54835 10.9774 2.67299 11.0206C2.79763 11.0637 2.92958 11.0817 3.06122 11.0737C3.19287 11.0656 3.32161 11.0315 3.44005 10.9735C3.55849 10.9155 3.66427 10.8346 3.75131 10.7355C3.83835 10.6364 3.90493 10.5211 3.94722 10.3961L4.35872 8.50012H5.79522H7.23172L7.64322 10.3961C7.73125 10.6451 7.91417 10.8491 8.15205 10.9636C8.38994 11.0782 8.66348 11.0941 8.91301 11.0077C9.16253 10.9214 9.36778 10.7399 9.48397 10.5028C9.60016 10.2657 9.61787 9.99223 9.53322 9.74212L6.74022 1.67212V1.67312ZM5.05022 7.20712L5.79522 5.05712L6.53922 7.20712H5.05022ZM2.51122 15.0001C2.51122 14.7349 2.61657 14.4806 2.80411 14.293C2.99165 14.1055 3.246 14.0001 3.51122 14.0001H8.76122C8.94693 14.0001 9.12897 14.0518 9.28695 14.1495C9.44493 14.2471 9.57259 14.3868 9.65565 14.5529C9.7387 14.719 9.77386 14.905 9.75718 15.0899C9.7405 15.2749 9.67265 15.4516 9.56122 15.6001L5.51122 21.0001H8.76122C9.02643 21.0001 9.28079 21.1055 9.46832 21.293C9.65586 21.4806 9.76122 21.7349 9.76122 22.0001C9.76122 22.2653 9.65586 22.5197 9.46832 22.7072C9.28079 22.8948 9.02643 23.0001 8.76122 23.0001H3.51122C3.32551 23.0001 3.14346 22.9484 2.98549 22.8508C2.82751 22.7531 2.69984 22.6134 2.61679 22.4473C2.53374 22.2812 2.49858 22.0953 2.51526 21.9103C2.53194 21.7254 2.59979 21.5487 2.71122 21.4001L6.76122 16.0001H3.51122C3.246 16.0001 2.99165 15.8948 2.80411 15.7072C2.61657 15.5197 2.51122 15.2653 2.51122 15.0001ZM18.2612 1.00012C18.5264 1.00012 18.7808 1.10548 18.9683 1.29302C19.1559 1.48055 19.2612 1.73491 19.2612 2.00012V18.5861L21.0542 16.7931C21.2428 16.611 21.4954 16.5102 21.7576 16.5124C22.0198 16.5147 22.2706 16.6199 22.456 16.8053C22.6414 16.9907 22.7466 17.2415 22.7489 17.5037C22.7512 17.7659 22.6504 18.0185 22.4682 18.2071L18.9682 22.7071C18.7807 22.8946 18.5264 22.9999 18.2612 22.9999C17.9961 22.9999 17.7417 22.8946 17.5542 22.7071L14.0542 18.2071C13.8721 18.0185 13.7713 17.7659 13.7735 17.5037C13.7758 17.2415 13.881 16.9907 14.0664 16.8053C14.2518 16.6199 14.5026 16.5147 14.7648 16.5124C15.027 16.5102 15.2796 16.611 15.4682 16.7931L17.2612 18.5861V2.00012C17.2612 1.73491 17.3666 1.48055 17.5541 1.29302C17.7416 1.10548 17.996 1.00012 18.2612 1.00012Z" fill="white"/>
</svg>
