<svg width="24" height="24" viewBox="0 0 24 24" fill="none" xmlns="http://www.w3.org/2000/svg">
<path d="M6.74022 1.67305C6.67221 1.47656 6.54465 1.30615 6.37527 1.18555C6.2059 1.06494 6.00315 1.00012 5.79522 1.00012C5.58729 1.00012 5.38453 1.06494 5.21516 1.18555C5.04579 1.30615 4.91823 1.47656 4.85022 1.67305L2.05722 9.74205C2.01324 9.8664 1.9943 9.99821 2.00148 10.1299C2.00867 10.2616 2.04183 10.3906 2.09906 10.5094C2.1563 10.6282 2.23647 10.7346 2.33497 10.8223C2.43347 10.91 2.54835 10.9774 2.67299 11.0205C2.79763 11.0636 2.92958 11.0817 3.06122 11.0736C3.19287 11.0655 3.32161 11.0315 3.44005 10.9734C3.55849 10.9154 3.66427 10.8345 3.75131 10.7354C3.83835 10.6363 3.90493 10.521 3.94722 10.3961L4.35872 8.50005H5.79522H7.23172L7.64322 10.3961C7.73125 10.645 7.91417 10.849 8.15205 10.9636C8.38994 11.0782 8.66348 11.094 8.91301 11.0077C9.16253 10.9213 9.36778 10.7398 9.48397 10.5027C9.60016 10.2656 9.61787 9.99216 9.53322 9.74205L6.74022 1.67205V1.67305ZM5.05022 7.20705L5.79522 5.05705L6.53922 7.20705H5.05022ZM2.51122 15.0001C2.51122 14.7348 2.61657 14.4805 2.80411 14.2929C2.99165 14.1054 3.246 14.0001 3.51122 14.0001H8.76122C8.94693 14.0001 9.12897 14.0518 9.28695 14.1494C9.44493 14.247 9.57259 14.3867 9.65565 14.5528C9.7387 14.7189 9.77386 14.9049 9.75718 15.0899C9.7405 15.2748 9.67265 15.4515 9.56122 15.6001L5.51122 21.0001H8.76122C9.02643 21.0001 9.28079 21.1054 9.46832 21.2929C9.65586 21.4805 9.76122 21.7348 9.76122 22.0001C9.76122 22.2653 9.65586 22.5196 9.46832 22.7072C9.28079 22.8947 9.02643 23.0001 8.76122 23.0001H3.51122C3.32551 23.0001 3.14346 22.9483 2.98549 22.8507C2.82751 22.7531 2.69984 22.6134 2.61679 22.4473C2.53374 22.2812 2.49858 22.0952 2.51526 21.9102C2.53194 21.7253 2.59979 21.5486 2.71122 21.4001L6.76122 16.0001H3.51122C3.246 16.0001 2.99165 15.8947 2.80411 15.7072C2.61657 15.5196 2.51122 15.2653 2.51122 15.0001Z" fill="white"/>
<path d="M18.9683 22.707C18.7807 22.8945 18.5264 22.9999 18.2611 22.9999C17.9959 22.9999 17.7416 22.8945 17.554 22.707C17.3665 22.5194 17.2612 22.2651 17.2612 21.9999V5.41388L15.4681 7.20688C15.2795 7.38904 15.0269 7.48983 14.7647 7.48755C14.5026 7.48527 14.2517 7.3801 14.0663 7.1947C13.8809 7.00929 13.7758 6.75848 13.7735 6.49628C13.7712 6.23408 13.872 5.98148 14.0541 5.79288L17.5541 1.29288C17.7417 1.10541 17.996 1.00009 18.2611 1.00009C18.5263 1.00009 18.7806 1.10541 18.9682 1.29288L22.4681 5.79288C22.6503 5.98148 22.7511 6.23408 22.7488 6.49628C22.7465 6.75848 22.6414 7.00929 22.456 7.1947C22.2706 7.3801 22.0197 7.48527 21.7575 7.48755C21.4954 7.48983 21.2427 7.38904 21.0541 7.20688L19.2611 5.41388V21.9999C19.2611 22.2651 19.1558 22.5194 18.9683 22.707Z" fill="white"/>
</svg>
