<svg width="150" height="150" viewBox="0 0 150 150" fill="none" xmlns="http://www.w3.org/2000/svg">
<mask id="path-2-outside-1_66_1223" maskUnits="userSpaceOnUse" x="20.6666" y="63" width="102" height="77" fill="black">
<rect fill="white" x="20.6666" y="63" width="102" height="77"/>
<path d="M71.6666 77.2507C80.0016 71.5009 99.1666 64.3124 116.667 77.2507V133.333C99.1666 120.395 80.0016 127.583 71.6666 133.333M71.6666 77.2507C63.3316 71.5009 44.1666 64.3124 26.6666 77.2507V133.333C44.1666 120.395 63.3316 127.583 71.6666 133.333M71.6666 77.2507V133.333Z"/>
<path d="M41.6666 110.714V92.6184C41.6666 91.0186 42.369 89.4844 43.6192 88.3532C44.8695 87.222 46.5652 86.5865 48.3333 86.5865C50.1014 86.5865 51.7971 87.222 53.0473 88.3532C54.2976 89.4844 55 91.0186 55 92.6184V110.714M41.6666 101.666H55Z"/>
<path d="M88.3333 107.698C88.3333 108.498 88.6845 109.265 89.3096 109.831C89.9347 110.396 90.7826 110.714 91.6666 110.714H98.3333C99.2173 110.714 100.065 110.396 100.69 109.831C101.315 109.265 101.667 108.498 101.667 107.698V101.666C101.667 100.866 101.315 100.099 100.69 99.5336C100.065 98.968 99.2173 98.6502 98.3333 98.6502H91.6666C90.7826 98.6502 89.9347 98.3325 89.3096 97.7669C88.6845 97.2013 88.3333 96.4342 88.3333 95.6343V89.6024C88.3333 88.8026 88.6845 88.0355 89.3096 87.4699C89.9347 86.9043 90.7826 86.5865 91.6666 86.5865H98.3333C99.2173 86.5865 100.065 86.9043 100.69 87.4699C101.315 88.0355 101.667 88.8026 101.667 89.6024"/>
</mask>
<path d="M71.6666 77.2507C80.0016 71.5009 99.1666 64.3124 116.667 77.2507V133.333C99.1666 120.395 80.0016 127.583 71.6666 133.333M71.6666 77.2507C63.3316 71.5009 44.1666 64.3124 26.6666 77.2507V133.333C44.1666 120.395 63.3316 127.583 71.6666 133.333M71.6666 77.2507V133.333Z" fill="#FAC4C7"/>
<path d="M41.6666 110.714V92.6184C41.6666 91.0186 42.369 89.4844 43.6192 88.3532C44.8695 87.222 46.5652 86.5865 48.3333 86.5865C50.1014 86.5865 51.7971 87.222 53.0473 88.3532C54.2976 89.4844 55 91.0186 55 92.6184V110.714M41.6666 101.666H55Z" fill="#FAC4C7"/>
<path d="M88.3333 107.698C88.3333 108.498 88.6845 109.265 89.3096 109.831C89.9347 110.396 90.7826 110.714 91.6666 110.714H98.3333C99.2173 110.714 100.065 110.396 100.69 109.831C101.315 109.265 101.667 108.498 101.667 107.698V101.666C101.667 100.866 101.315 100.099 100.69 99.5336C100.065 98.968 99.2173 98.6502 98.3333 98.6502H91.6666C90.7826 98.6502 89.9347 98.3325 89.3096 97.7669C88.6845 97.2013 88.3333 96.4342 88.3333 95.6343V89.6024C88.3333 88.8026 88.6845 88.0355 89.3096 87.4699C89.9347 86.9043 90.7826 86.5865 91.6666 86.5865H98.3333C99.2173 86.5865 100.065 86.9043 100.69 87.4699C101.315 88.0355 101.667 88.8026 101.667 89.6024" fill="#FAC4C7"/>
<path d="M116.667 77.2507H122.667C122.667 75.3477 121.764 73.5575 120.234 72.4261L116.667 77.2507ZM116.667 133.333L113.1 138.158C114.921 139.505 117.346 139.711 119.368 138.691C121.391 137.671 122.667 135.599 122.667 133.333H116.667ZM71.6666 133.333L68.2596 138.272C70.3106 139.687 73.0226 139.687 75.0737 138.272L71.6666 133.333ZM26.6666 77.2507L23.0997 72.4261C21.5694 73.5575 20.6666 75.3477 20.6666 77.2507H26.6666ZM26.6666 133.333H20.6666C20.6666 135.599 21.9424 137.671 23.9649 138.691C25.9875 139.711 28.4121 139.505 30.2336 138.158L26.6666 133.333ZM35.6666 110.714C35.6666 114.028 38.3529 116.714 41.6666 116.714C44.9803 116.714 47.6666 114.028 47.6666 110.714H35.6666ZM48.3333 86.5865L48.3333 92.5865L48.3333 86.5865ZM55 92.6184H49H55ZM49 110.714C49 114.028 51.6863 116.714 55 116.714C58.3137 116.714 61 114.028 61 110.714H49ZM41.6666 95.6661C38.3529 95.6661 35.6666 98.3524 35.6666 101.666C35.6666 104.98 38.3529 107.666 41.6666 107.666V95.6661ZM55 107.666C58.3137 107.666 61 104.98 61 101.666C61 98.3524 58.3137 95.6661 55 95.6661V107.666ZM94.3333 107.698C94.3333 104.384 91.647 101.698 88.3333 101.698C85.0196 101.698 82.3333 104.384 82.3333 107.698H94.3333ZM91.6666 86.5865V92.5865V86.5865ZM98.3333 86.5865L98.3333 92.5865L98.3333 86.5865ZM95.6666 89.6024C95.6666 92.9161 98.3529 95.6024 101.667 95.6024C104.98 95.6024 107.667 92.9161 107.667 89.6024H95.6666ZM75.0737 82.1896C82.4235 77.1193 98.5794 71.34 113.1 82.0753L120.234 72.4261C99.7539 57.2848 77.5797 65.8824 68.2596 72.3119L75.0737 82.1896ZM110.667 77.2507V133.333H122.667V77.2507H110.667ZM120.234 128.509C99.7539 113.367 77.5797 121.965 68.2596 128.394L75.0737 138.272C82.4235 133.202 98.5794 127.423 113.1 138.158L120.234 128.509ZM75.0737 72.3119C65.7535 65.8824 43.5794 57.2848 23.0997 72.4261L30.2336 82.0753C44.7539 71.34 60.9097 77.1193 68.2596 82.1896L75.0737 72.3119ZM20.6666 77.2507V133.333H32.6666V77.2507H20.6666ZM30.2336 138.158C44.7539 127.423 60.9097 133.202 68.2596 138.272L75.0737 128.394C65.7535 121.965 43.5794 113.367 23.0997 128.509L30.2336 138.158ZM65.6666 77.2507V133.333H77.6666V77.2507H65.6666ZM47.6666 110.714V92.6184H35.6666V110.714H47.6666ZM47.6666 92.6184C47.6666 92.703 47.647 92.7696 47.6296 92.8076C47.6128 92.8442 47.6069 92.8367 47.6448 92.8024L39.5937 83.904C37.1629 86.1034 35.6666 89.2225 35.6666 92.6184H47.6666ZM47.6448 92.8024C47.7343 92.7213 47.9735 92.5865 48.3333 92.5865L48.3333 80.5865C45.1569 80.5865 42.0046 81.7227 39.5937 83.904L47.6448 92.8024ZM48.3333 92.5865C48.6931 92.5865 48.9323 92.7213 49.0218 92.8024L57.0729 83.904C54.6619 81.7227 51.5097 80.5865 48.3333 80.5865L48.3333 92.5865ZM49.0218 92.8024C49.0597 92.8367 49.0537 92.8442 49.037 92.8076C49.0196 92.7696 49 92.703 49 92.6184L61 92.6184C61 89.2225 59.5037 86.1034 57.0729 83.904L49.0218 92.8024ZM49 92.6184V110.714H61V92.6184H49ZM41.6666 107.666H55V95.6661H41.6666V107.666ZM82.3333 107.698C82.3333 110.294 83.4784 112.646 85.2841 114.28L93.3351 105.381C93.8906 105.884 94.3333 106.702 94.3333 107.698H82.3333ZM85.2841 114.28C87.0699 115.896 89.3743 116.714 91.6666 116.714V104.714C92.1908 104.714 92.7995 104.897 93.3351 105.381L85.2841 114.28ZM91.6666 116.714H98.3333V104.714H91.6666V116.714ZM98.3333 116.714C100.626 116.714 102.93 115.896 104.716 114.28L96.6648 105.381C97.2004 104.897 97.8091 104.714 98.3333 104.714V116.714ZM104.716 114.28C106.522 112.646 107.667 110.294 107.667 107.698H95.6666C95.6666 106.702 96.1093 105.884 96.6648 105.381L104.716 114.28ZM107.667 107.698V101.666H95.6666V107.698H107.667ZM107.667 101.666C107.667 99.0702 106.522 96.7181 104.716 95.0844L96.6648 103.983C96.1093 103.48 95.6666 102.662 95.6666 101.666H107.667ZM104.716 95.0844C102.93 93.4686 100.626 92.6502 98.3333 92.6502V104.65C97.8091 104.65 97.2004 104.467 96.6648 103.983L104.716 95.0844ZM98.3333 92.6502H91.6666V104.65H98.3333V92.6502ZM91.6666 92.6502C92.1908 92.6502 92.7995 92.8331 93.3351 93.3177L85.2841 102.216C87.0699 103.832 89.3743 104.65 91.6666 104.65V92.6502ZM93.3351 93.3177C93.8906 93.8203 94.3333 94.6381 94.3333 95.6343H82.3333C82.3333 98.2302 83.4784 100.582 85.2841 102.216L93.3351 93.3177ZM94.3333 95.6343V89.6024H82.3333V95.6343H94.3333ZM94.3333 89.6024C94.3333 90.5986 93.8906 91.4165 93.3351 91.919L85.2841 83.0207C83.4784 84.6544 82.3333 87.0065 82.3333 89.6024H94.3333ZM93.3351 91.919C92.7996 92.4036 92.1909 92.5865 91.6666 92.5865L91.6666 80.5865C89.3743 80.5865 87.0699 81.4049 85.2841 83.0207L93.3351 91.919ZM91.6666 92.5865H98.3333V80.5865H91.6666V92.5865ZM98.3333 92.5865C97.8091 92.5865 97.2004 92.4036 96.6648 91.919L104.716 83.0207C102.93 81.4049 100.626 80.5865 98.3333 80.5865L98.3333 92.5865ZM96.6648 91.919C96.1093 91.4165 95.6666 90.5986 95.6666 89.6024H107.667C107.667 87.0065 106.522 84.6544 104.716 83.0207L96.6648 91.919Z" fill="#FAC4C7" mask="url(#path-2-outside-1_66_1223)"/>
<path d="M63.3333 58.3956C72.5944 51.7379 93.8889 43.4144 113.333 58.3956V123.333C93.8889 108.352 72.5944 116.676 63.3333 123.333M63.3333 58.3956C54.0722 51.7379 32.7778 43.4144 13.3333 58.3956V123.333C32.7778 108.352 54.0722 116.676 63.3333 123.333M63.3333 58.3956V123.333M30 97.1424V76.1897C30 74.3374 30.7804 72.5609 32.1696 71.2511C33.5587 69.9413 35.4428 69.2054 37.4074 69.2054C39.372 69.2054 41.2561 69.9413 42.6452 71.2511C44.0344 72.5609 44.8148 74.3374 44.8148 76.1897V97.1424M30 86.6661H44.8148M81.8518 93.6503C81.8518 94.5765 82.242 95.4647 82.9366 96.1196C83.6312 96.7745 84.5733 97.1424 85.5555 97.1424H92.9629C93.9452 97.1424 94.8873 96.7745 95.5819 96.1196C96.2764 95.4647 96.6667 94.5765 96.6667 93.6503V86.6661C96.6667 85.7399 96.2764 84.8516 95.5819 84.1967C94.8873 83.5418 93.9452 83.1739 92.9629 83.1739H85.5555C84.5733 83.1739 83.6312 82.806 82.9366 82.1511C82.242 81.4962 81.8518 80.608 81.8518 79.6818V72.6976C81.8518 71.7714 82.242 70.8832 82.9366 70.2283C83.6312 69.5734 84.5733 69.2054 85.5555 69.2054H92.9629C93.9452 69.2054 94.8873 69.5734 95.5819 70.2283C96.2764 70.8832 96.6667 71.7714 96.6667 72.6976" stroke="#333A57" stroke-width="6" stroke-linecap="round" stroke-linejoin="round"/>
<circle cx="115.57" cy="31.2719" r="12.0614" fill="#FDFF8D"/>
<path d="M107.368 18.2456C107.368 13.7238 107.368 11.1885 107.368 6.66667M107.368 41.4035V29.8246M98.6842 15.3509L101.579 18.2456M113.158 29.8246L116.053 32.7193M113.158 18.2456C114.288 17.1152 114.922 16.4813 116.053 15.3509M98.6842 32.7193L101.579 29.8246M113.158 24.0351C117.68 24.0351 120.215 24.0351 124.737 24.0351M90 24.0351H101.579" stroke="#333A57" stroke-width="3" stroke-linecap="round" stroke-linejoin="round"/>
<circle cx="134.333" cy="53.6667" r="8.33333" fill="#FDFF8D"/>
<path d="M128.667 44.6667C128.667 41.5425 128.667 39.7909 128.667 36.6667M128.667 60.6667V52.6667M122.667 42.6667L124.667 44.6667M132.667 52.6667L134.667 54.6667M132.667 44.6667C133.448 43.8856 133.886 43.4477 134.667 42.6667M122.667 54.6667L124.667 52.6667M132.667 48.6667C135.791 48.6667 137.542 48.6667 140.667 48.6667M116.667 48.6667H124.667" stroke="#333A57" stroke-width="2" stroke-linecap="round" stroke-linejoin="round"/>
</svg>
