<svg width="32" height="26" viewBox="0 0 32 26" fill="none" xmlns="http://www.w3.org/2000/svg">
<mask id="path-1-outside-1_66_1213" maskUnits="userSpaceOnUse" x="2.67999" y="3.52" width="29" height="23" fill="black">
<rect fill="white" x="2.67999" y="3.52" width="29" height="23"/>
<path d="M17.1 8.5212C19.4005 6.93424 24.69 4.95023 29.52 8.5212V24C24.69 20.429 19.4005 22.413 17.1 24M17.1 8.5212C14.7995 6.93424 9.50999 4.95023 4.67999 8.5212V24C9.50999 20.429 14.7995 22.413 17.1 24M17.1 8.5212V24V8.5212Z"/>
<path d="M8.81999 17.757V12.7627C8.81999 12.3211 9.01385 11.8977 9.35892 11.5855C9.70398 11.2733 10.172 11.0979 10.66 11.0979C11.148 11.0979 11.616 11.2733 11.9611 11.5855C12.3061 11.8977 12.5 12.3211 12.5 12.7627V17.757M8.81999 15.2598H12.5H8.81999Z"/>
<path d="M21.7 16.9246C21.7 17.1454 21.7969 17.3571 21.9695 17.5132C22.142 17.6693 22.376 17.757 22.62 17.757H24.46C24.704 17.757 24.938 17.6693 25.1105 17.5132C25.2831 17.3571 25.38 17.1454 25.38 16.9246V15.2598C25.38 15.0391 25.2831 14.8274 25.1105 14.6713C24.938 14.5152 24.704 14.4275 24.46 14.4275H22.62C22.376 14.4275 22.142 14.3398 21.9695 14.1837C21.7969 14.0275 21.7 13.8158 21.7 13.5951V11.9303C21.7 11.7095 21.7969 11.4978 21.9695 11.3417C22.142 11.1856 22.376 11.0979 22.62 11.0979H24.46C24.704 11.0979 24.938 11.1856 25.1105 11.3417C25.2831 11.4978 25.38 11.7095 25.38 11.9303"/>
</mask>
<path d="M17.1 8.5212C19.4005 6.93424 24.69 4.95023 29.52 8.5212V24C24.69 20.429 19.4005 22.413 17.1 24M17.1 8.5212C14.7995 6.93424 9.50999 4.95023 4.67999 8.5212V24C9.50999 20.429 14.7995 22.413 17.1 24M17.1 8.5212V24V8.5212Z" fill="#FAC4C7"/>
<path d="M8.81999 17.757V12.7627C8.81999 12.3211 9.01385 11.8977 9.35892 11.5855C9.70398 11.2733 10.172 11.0979 10.66 11.0979C11.148 11.0979 11.616 11.2733 11.9611 11.5855C12.3061 11.8977 12.5 12.3211 12.5 12.7627V17.757M8.81999 15.2598H12.5H8.81999Z" fill="#FAC4C7"/>
<path d="M21.7 16.9246C21.7 17.1454 21.7969 17.3571 21.9695 17.5132C22.142 17.6693 22.376 17.757 22.62 17.757H24.46C24.704 17.757 24.938 17.6693 25.1105 17.5132C25.2831 17.3571 25.38 17.1454 25.38 16.9246V15.2598C25.38 15.0391 25.2831 14.8274 25.1105 14.6713C24.938 14.5152 24.704 14.4275 24.46 14.4275H22.62C22.376 14.4275 22.142 14.3398 21.9695 14.1837C21.7969 14.0275 21.7 13.8158 21.7 13.5951V11.9303C21.7 11.7095 21.7969 11.4978 21.9695 11.3417C22.142 11.1856 22.376 11.0979 22.62 11.0979H24.46C24.704 11.0979 24.938 11.1856 25.1105 11.3417C25.2831 11.4978 25.38 11.7095 25.38 11.9303" fill="#FAC4C7"/>
<path d="M29.52 8.5212H31.52C31.52 7.88685 31.2191 7.29012 30.709 6.913L29.52 8.5212ZM29.52 24L28.331 25.6082C28.9382 26.0571 29.7464 26.1258 30.4206 25.7858C31.0947 25.4458 31.52 24.7551 31.52 24H29.52ZM17.1 24L15.9643 25.6463C16.648 26.1179 17.552 26.1179 18.2357 25.6463L17.1 24ZM4.67999 8.5212L3.491 6.913C2.98092 7.29012 2.67999 7.88685 2.67999 8.5212H4.67999ZM4.67999 24H2.67999C2.67999 24.7551 3.10524 25.4458 3.77943 25.7858C4.45363 26.1258 5.26183 26.0571 5.86898 25.6082L4.67999 24ZM6.81999 17.757C6.81999 18.8616 7.71542 19.757 8.81999 19.757C9.92456 19.757 10.82 18.8616 10.82 17.757H6.81999ZM10.66 11.0979V13.0979V11.0979ZM12.5 12.7627H10.5H12.5ZM10.5 17.757C10.5 18.8616 11.3954 19.757 12.5 19.757C13.6046 19.757 14.5 18.8616 14.5 17.757H10.5ZM8.81999 13.2598C7.71542 13.2598 6.81999 14.1553 6.81999 15.2598C6.81999 16.3644 7.71542 17.2598 8.81999 17.2598V13.2598ZM12.5 17.2598C13.6046 17.2598 14.5 16.3644 14.5 15.2598C14.5 14.1553 13.6046 13.2598 12.5 13.2598V17.2598ZM23.7 16.9246C23.7 15.8201 22.8046 14.9246 21.7 14.9246C20.5954 14.9246 19.7 15.8201 19.7 16.9246H23.7ZM25.1105 14.6713L26.4524 13.1882L25.1105 14.6713ZM22.62 11.0979V13.0979V11.0979ZM24.46 11.0979V13.0979V11.0979ZM23.38 11.9303C23.38 13.0348 24.2754 13.9303 25.38 13.9303C26.4846 13.9303 27.38 13.0348 27.38 11.9303H23.38ZM18.2357 10.1675C20.2077 8.80705 24.4943 7.29276 28.331 10.1294L30.709 6.913C24.8857 2.60769 18.5932 5.06143 15.9643 6.87492L18.2357 10.1675ZM27.52 8.5212V24H31.52V8.5212H27.52ZM30.709 22.3918C24.8857 18.0865 18.5932 20.5402 15.9643 22.3537L18.2357 25.6463C20.2077 24.2858 24.4943 22.7716 28.331 25.6082L30.709 22.3918ZM18.2357 6.87492C15.6068 5.06143 9.31425 2.60769 3.491 6.913L5.86898 10.1294C9.70573 7.29276 13.9922 8.80705 15.9643 10.1675L18.2357 6.87492ZM2.67999 8.5212V24H6.67999V8.5212H2.67999ZM5.86898 25.6082C9.70573 22.7716 13.9922 24.2858 15.9643 25.6463L18.2357 22.3537C15.6068 20.5402 9.31425 18.0865 3.491 22.3918L5.86898 25.6082ZM15.1 8.5212V24H19.1V8.5212H15.1ZM10.82 17.757V12.7627H6.81999V17.757H10.82ZM10.82 12.7627C10.82 12.9198 10.7492 13.0247 10.7008 13.0685L8.01708 10.1024C7.27849 10.7707 6.81999 11.7224 6.81999 12.7627H10.82ZM10.7008 13.0685C10.6782 13.089 10.6619 13.0958 10.6577 13.0974C10.6535 13.099 10.6547 13.0979 10.66 13.0979V9.09788C9.70256 9.09788 8.74904 9.44016 8.01708 10.1024L10.7008 13.0685ZM10.66 13.0979C10.6653 13.0979 10.6665 13.099 10.6623 13.0974C10.6581 13.0958 10.6418 13.089 10.6192 13.0685L13.3029 10.1024C12.5709 9.44016 11.6174 9.09788 10.66 9.09788V13.0979ZM10.6192 13.0685C10.5708 13.0247 10.5 12.9198 10.5 12.7627H14.5C14.5 11.7224 14.0415 10.7707 13.3029 10.1024L10.6192 13.0685ZM10.5 12.7627V17.757H14.5V12.7627H10.5ZM8.81999 17.2598H12.5V13.2598H8.81999V17.2598ZM19.7 16.9246C19.7 17.7441 20.0616 18.4841 20.6276 18.9963L23.3113 16.0302C23.5323 16.2301 23.7 16.5467 23.7 16.9246H19.7ZM20.6276 18.9963C21.187 19.5025 21.9066 19.757 22.62 19.757V15.757C22.8454 15.757 23.0969 15.8362 23.3113 16.0302L20.6276 18.9963ZM22.62 19.757H24.46V15.757H22.62V19.757ZM24.46 19.757C25.1734 19.757 25.8929 19.5025 26.4524 18.9963L23.7687 16.0302C23.9831 15.8362 24.2346 15.757 24.46 15.757V19.757ZM26.4524 18.9963C27.0184 18.4841 27.38 17.7441 27.38 16.9246H23.38C23.38 16.5467 23.5477 16.2301 23.7687 16.0302L26.4524 18.9963ZM27.38 16.9246V15.2598H23.38V16.9246H27.38ZM27.38 15.2598C27.38 14.4404 27.0184 13.7004 26.4524 13.1882L23.7687 16.1543C23.5477 15.9544 23.38 15.6378 23.38 15.2598H27.38ZM26.4524 13.1882C25.8929 12.682 25.1734 12.4275 24.46 12.4275V16.4275C24.2346 16.4275 23.9831 16.3483 23.7687 16.1543L26.4524 13.1882ZM24.46 12.4275H22.62V16.4275H24.46V12.4275ZM22.62 12.4275C22.8454 12.4275 23.0969 12.5066 23.3113 12.7006L20.6276 15.6667C21.187 16.1729 21.9066 16.4275 22.62 16.4275V12.4275ZM23.3113 12.7006C23.5323 12.9005 23.7 13.2171 23.7 13.5951H19.7C19.7 14.4145 20.0616 15.1546 20.6276 15.6667L23.3113 12.7006ZM23.7 13.5951V11.9303H19.7V13.5951H23.7ZM23.7 11.9303C23.7 12.3082 23.5323 12.6248 23.3113 12.8247L20.6276 9.85862C20.0616 10.3708 19.7 11.1108 19.7 11.9303H23.7ZM23.3113 12.8247C23.0969 13.0187 22.8454 13.0979 22.62 13.0979V9.09788C21.9066 9.09788 21.187 9.35246 20.6276 9.85862L23.3113 12.8247ZM22.62 13.0979H24.46V9.09788H22.62V13.0979ZM24.46 13.0979C24.2346 13.0979 23.9831 13.0187 23.7687 12.8247L26.4524 9.85862C25.8929 9.35246 25.1734 9.09788 24.46 9.09788V13.0979ZM23.7687 12.8247C23.5477 12.6248 23.38 12.3082 23.38 11.9303H27.38C27.38 11.1108 27.0184 10.3708 26.4524 9.85862L23.7687 12.8247Z" fill="#FAC4C7" mask="url(#path-1-outside-1_66_1213)"/>
<path d="M14.8 3.31718C17.3561 1.47965 23.2333 -0.817628 28.6 3.31718V21.24C23.2333 17.1052 17.3561 19.4025 14.8 21.24M14.8 3.31718C12.2439 1.47965 6.36667 -0.817628 1 3.31718V21.24C6.36667 17.1052 12.2439 19.4025 14.8 21.24M14.8 3.31718V21.24M5.6 14.0113V8.22835C5.6 7.71711 5.8154 7.2268 6.1988 6.8653C6.58221 6.50379 7.10222 6.3007 7.64444 6.3007C8.18666 6.3007 8.70668 6.50379 9.09008 6.8653C9.47349 7.2268 9.68889 7.71711 9.68889 8.22835V14.0113M5.6 11.1198H9.68889M19.9111 13.0475C19.9111 13.3031 20.0188 13.5483 20.2105 13.729C20.4022 13.9098 20.6622 14.0113 20.9333 14.0113H22.9778C23.2489 14.0113 23.5089 13.9098 23.7006 13.729C23.8923 13.5483 24 13.3031 24 13.0475V11.1198C24 10.8642 23.8923 10.6191 23.7006 10.4383C23.5089 10.2575 23.2489 10.156 22.9778 10.156H20.9333C20.6622 10.156 20.4022 10.0545 20.2105 9.87371C20.0188 9.69295 19.9111 9.4478 19.9111 9.19218V7.26453C19.9111 7.00891 20.0188 6.76375 20.2105 6.583C20.4022 6.40225 20.6622 6.3007 20.9333 6.3007H22.9778C23.2489 6.3007 23.5089 6.40225 23.7006 6.583C23.8923 6.76375 24 7.00891 24 7.26453" stroke="#333A57" stroke-width="2" stroke-linecap="round" stroke-linejoin="round"/>
</svg>
